<?xml version="1.0" encoding="UTF-8" standalone="no"?>
<svg
   id="Logo"
   viewBox="0 0 777 600"
   version="1.1"
   sodipodi:docname="VRC Logo Black.svg"
   inkscape:version="1.4.3 (0d15f75, 2025-12-25)"
   xmlns:inkscape="http://www.inkscape.org/namespaces/inkscape"
   xmlns:sodipodi="http://sodipodi.sourceforge.net/DTD/sodipodi-0.dtd"
   xmlns="http://www.w3.org/2000/svg"
   xmlns:svg="http://www.w3.org/2000/svg">
  <sodipodi:namedview
     id="namedview6"
     pagecolor="#ffffff"
     bordercolor="#000000"
     borderopacity="0.25"
     inkscape:showpageshadow="2"
     inkscape:pageopacity="0.0"
     inkscape:pagecheckerboard="0"
     inkscape:deskcolor="#d1d1d1"
     inkscape:zoom="1.3623591"
     inkscape:cx="392.33416"
     inkscape:cy="195.61656"
     inkscape:window-width="2560"
     inkscape:window-height="1369"
     inkscape:window-x="1592"
     inkscape:window-y="40"
     inkscape:window-maximized="1"
     inkscape:current-layer="Logo" />
  <defs
     id="defs1">
    <style
       id="style1">
      .cls-1 {
        fill: #fff;
      }
    </style>
  </defs>
  <path
     class="cls-1"
     d="M 413 201.2 h -22.6 v 43.8 h 22.6 c 13.4 0 22 -5.5 22 -21.8 s -8.6 -22 -22 -22 Z"
     id="path1" />
  <path
     class="cls-1"
     d="M 594.13278,129 H 214.73257 c -15.86225,0 -28.63187,12.93925 -28.33258,27.58367 v 190.87896 c -0.29929,15.94838 12.57009,28.88762 28.33258,28.88762 h 285.02476 l 66.64144,86.36195 c 4.28979,5.61704 8.2803,8.52586 11.07365,8.52586 2.79335,0 6.53545,-2.549 6.53545,-8.16603 l 0.0299,-84.58037 -2.07612,-2.14141 h 12.07127 c 15.86226,0 30.71892,-12.93924 30.708,-28.88762 L 624.61122,157.88762 C 624.6003,141.93925 609.79551,129 594.03301,129 Z"
     id="path3"
     sodipodi:nodetypes="csccsccscccssscc"
     style="stroke-width:1.00033" />
  <path
     d="m 524.51133,201.2 c 19.5,0 21,14 21.4,20.4 0.2,6.2 5.8,8.4 13.4,8.4 9.1,0 13.4,-2.5 13.4,-13.2 0,-23.9 -20.4,-39.1 -49,-39.1 -25.9,0 -47.5,12.8 -47.5,47.2 v 57.4 c 0,34.4 21.4,47.1 47.3,47.1 28.8,0 49.2,-15.8 49.2,-40.8 0,-10.5 -4.3,-13.2 -13.6,-13.2 -7,0 -12.8,2.1 -13.2,8.4 -0.6,8.6 -2.3,22 -21,22 v 0 c -14.2,0 -22,-7.6 -22,-23.7 v -57.4 c 0,-16 7.8,-23.7 21.6,-23.7 z"
     id="path2" />
  <path
     d="M 594.50295,113.3 217.2,113.3 c -24.9,0 -45.2,20.3 -45.2,45.2 v 188.9 c 0,24.9 20.3,45.2 45.2,45.2 l 274.90295,0 61.5,79.2 c 7.6,9.8 15.8,14.8 24.3,14.8 5.5,0 10.6,-2.1 14.4,-5.9 4.6,-4.6 6.9,-11 6.9,-19.1 l -0.1,-69.2 c 22.8,-2.3 40.6,-21.6 40.6,-45 V 158.5 c 0,-25 -20.3,-45.2 -45.2,-45.2 z m 28.5,234.2 c 0,15.8 -12.8,28.6 -28.6,28.6 h -12.1 v 1.1 l 0.1,84.6 c 0,5.5 -1.8,8.3 -4.6,8.3 -2.8,0 -6.8,-2.8 -11.1,-8.4 l -66.5,-85.6 -283.00295,0 c -15.8,0 -28.6,-12.8 -28.6,-28.6 V 159.7 c 0,-15.8 12.8,-28.6 28.6,-28.6 l 377.20295,0 c 15.8,0 28.6,12.8 28.6,28.6 z"
     id="path4"
     sodipodi:nodetypes="sssssccssccssssscccsccsssssss" />
  <path
     d="M 330.5 177.8 c -4.5 0 -8 1.4 -9.1 5.4 l -31.3 111.6 l -31.5 -111.6 c -1 -3.9 -4.5 -5.4 -9.1 -5.4 c -7.2 0 -16.9 4.5 -16.9 11.1 c 0 0.4 0.2 1.2 0.4 2.1 l 39.7 129.5 c 2.1 6.2 9.5 9.1 17.3 9.1 s 15.4 -2.9 17.3 -9.1 l 39.5 -129.5 c 0.2 -0.8 0.4 -1.4 0.4 -2.1 c 0 -6.4 -9.7 -11.1 -16.9 -11.1 Z"
     id="path5" />
  <path
     d="M 434.8 262 c 15.4 -4.7 27 -17.5 27 -41.2 c 0 -32.8 -21.8 -43 -48.8 -43 h -40.8 c -5.2 0 -8.6 3.9 -8.6 8.2 h 0 v 133.8 c 0 5.5 6.6 8.4 13.4 8.4 s 13.4 -2.9 13.4 -8.4 v -53.7 h 17.3 l 29.2 56.8 c 2.1 4.1 5.6 6.4 9.3 6.4 c 7.8 0 16.7 -7.2 16.7 -14 c 0 -0.8 -0.2 -2.3 -1 -3.3 l -27 -50 Z M 413 245.1 h -22.6 v -43.8 h 22.6 c 13.4 0 22 5.8 22 22 s -8.6 21.8 -22 21.8 Z"
     id="path6" />
</svg>
